<svg width="306" height="26" viewBox="0 0 306 26" fill="none" xmlns="http://www.w3.org/2000/svg">
<path d="M0 26V0.890747H4.80648L19.621 18.9692H17.2896V0.890747H23.0286V26H18.2221L3.40763 7.9215H5.73905V26H0Z" fill="#12113B"/>
<path d="M36.157 26V0.890747H55.1321V5.55358H41.9319V21.3366H55.5984V25.9994H36.157V26ZM41.5015 15.5257V10.97H53.5896V15.5257H41.5015Z" fill="#12113B"/>
<path d="M114.329 25.5402L125.484 0.430969H131.223L142.487 25.5402H136.388L127.17 3.37232H129.501L120.283 25.5402H114.328H114.329ZM119.961 20.1597L121.431 15.7477H134.416L135.923 20.1597H119.961Z" fill="#12113B"/>
<path d="M160.565 25.9706C158.556 25.9706 156.625 25.7015 154.772 25.1634C152.919 24.6253 151.43 23.9259 150.306 23.0651L152.279 18.689C153.331 19.4544 154.598 20.0826 156.081 20.5724C157.564 21.0628 159.059 21.3077 160.565 21.3077C161.713 21.3077 162.639 21.1882 163.345 20.9492C164.05 20.7102 164.57 20.3934 164.905 19.9984C165.24 19.6039 165.407 19.1435 165.407 18.6172C165.407 17.9478 165.144 17.4156 164.619 17.0211C164.092 16.6267 163.393 16.3034 162.52 16.0526C161.647 15.8018 160.696 15.5628 159.668 15.3355C158.64 15.1083 157.606 14.8333 156.566 14.5107C155.525 14.1881 154.569 13.7577 153.696 13.2196C152.823 12.6815 152.13 11.9768 151.616 11.1031C151.101 10.2306 150.844 9.1361 150.844 7.82085C150.844 6.38609 151.226 5.07672 151.992 3.89335C152.757 2.70939 153.923 1.76505 155.49 1.05974C157.056 0.354428 159.023 0.00177002 161.39 0.00177002C162.968 0.00177002 164.529 0.1937 166.071 0.575793C167.614 0.958475 168.959 1.50836 170.106 2.22604L168.277 6.60215C167.153 5.9563 165.993 5.47236 164.798 5.14914C163.601 4.82651 162.454 4.6646 161.354 4.6646C160.254 4.6646 159.285 4.79001 158.592 5.0414C157.899 5.29279 157.391 5.63308 157.068 6.06345C156.745 6.49382 156.583 6.97247 156.583 7.49822C156.583 8.1682 156.846 8.70631 157.372 9.11254C157.898 9.51936 158.592 9.83611 159.453 10.0634C160.314 10.2912 161.27 10.5179 162.322 10.7451C163.375 10.973 164.415 11.2532 165.443 11.5882C166.471 11.9232 167.416 12.3477 168.277 12.8617C169.138 13.3762 169.837 14.0697 170.375 14.9423C170.913 15.8154 171.182 16.8975 171.182 18.1886C171.182 19.5998 170.793 20.8909 170.017 22.0625C169.24 23.2347 168.062 24.179 166.484 24.8961C164.905 25.6132 162.932 25.9723 160.565 25.9723V25.9706Z" fill="#12113B"/>
<path d="M187.18 25.5402V5.16624H179.145V0.43158H201.026V5.16624H192.991V25.5402H187.18Z" fill="#12113B"/>
<path d="M223.158 25.9705C221.173 25.9705 219.343 25.6479 217.67 25.0021C215.995 24.3562 214.536 23.4478 213.293 22.2762C212.05 21.1046 211.087 19.7293 210.406 18.1509C209.724 16.5725 209.384 14.851 209.384 12.9859C209.384 11.1207 209.724 9.36921 210.406 7.80257C211.087 6.23652 212.049 4.86711 213.293 3.69551C214.537 2.52392 215.989 1.6149 217.652 0.969636C219.314 0.323787 221.137 0.00115967 223.122 0.00115967C225.107 0.00115967 226.93 0.318489 228.592 0.951975C230.254 1.58605 231.706 2.48859 232.95 3.66019C234.194 4.83237 235.156 6.20708 235.838 7.7855C236.52 9.36391 236.86 11.0978 236.86 12.9864C236.86 14.8751 236.519 16.5795 235.838 18.1697C235.156 19.7605 234.194 21.1411 232.95 22.3127C231.707 23.4849 230.254 24.3874 228.592 25.0209C226.929 25.6544 225.118 25.9717 223.158 25.9717V25.9705ZM223.122 21.0563C224.246 21.0563 225.28 20.8591 226.225 20.4646C227.169 20.0702 228 19.5085 228.717 18.7785C229.435 18.049 229.991 17.2001 230.385 16.2316C230.78 15.2631 230.977 14.1816 230.977 12.9853C230.977 11.7889 230.78 10.7074 230.385 9.73894C229.991 8.77046 229.435 7.92208 228.717 7.19205C228 6.46259 227.169 5.90094 226.225 5.50589C225.28 5.11144 224.245 4.9142 223.122 4.9142C221.999 4.9142 220.957 5.11144 220.001 5.50589C219.044 5.90035 218.213 6.46259 217.508 7.19205C216.802 7.9215 216.253 8.77046 215.858 9.73894C215.463 10.7074 215.266 11.7895 215.266 12.9853C215.266 14.181 215.463 15.2631 215.858 16.2316C216.252 17.2001 216.802 18.049 217.508 18.7785C218.213 19.5079 219.044 20.0696 220.001 20.4646C220.957 20.8591 221.997 21.0563 223.122 21.0563Z" fill="#12113B"/>
<path d="M260.427 25.9706C258.49 25.9706 256.69 25.6532 255.029 25.0197C253.366 24.3863 251.926 23.4837 250.706 22.3115C249.486 21.1399 248.536 19.7646 247.854 18.1862C247.173 16.6078 246.832 14.8746 246.832 12.9853C246.832 11.096 247.173 9.36216 247.854 7.78434C248.536 6.20592 249.492 4.83121 250.724 3.65903C251.955 2.48743 253.402 1.58489 255.064 0.950819C256.726 0.317333 258.525 0 260.462 0C262.638 0 264.611 0.376795 266.381 1.12979C268.15 1.8828 269.632 2.98963 270.829 4.44794L267.063 7.89149C266.225 6.91123 265.275 6.17001 264.211 5.66782C263.146 5.16562 261.992 4.91481 260.749 4.91481C259.577 4.91481 258.502 5.11204 257.521 5.5065C256.541 5.90095 255.692 6.45732 254.975 7.1744C254.257 7.89149 253.701 8.74104 253.307 9.7213C252.912 10.7021 252.715 11.7901 252.715 12.9853C252.715 14.1804 252.912 15.269 253.307 16.2493C253.701 17.2301 254.257 18.0785 254.975 18.7962C255.692 19.5132 256.541 20.0696 257.521 20.4641C258.502 20.8585 259.578 21.0558 260.749 21.0558C261.993 21.0558 263.147 20.7991 264.211 20.2845C265.275 19.7705 266.225 19.0234 267.063 18.0426L270.829 21.4861C269.632 22.945 268.151 24.0572 266.381 24.8219C264.611 25.5867 262.626 25.97 260.426 25.97L260.427 25.9706Z" fill="#12113B"/>
<path d="M281.554 25.5402V0.430969H287.329V25.5402H281.554ZM286.719 19.8006L286.433 13.093L298.449 0.430969H304.906L294.109 12.0886L290.809 15.5322L286.719 19.8006ZM298.736 25.5402L289.804 14.6355L293.606 10.4749L305.551 25.5402H298.736Z" fill="#12113B"/>
<path d="M71.2283 0.800659H64.3606C63.9733 0.800659 63.7572 1.24869 63.998 1.55189L72.5754 12.3388C73.0687 12.9594 73.0687 13.8389 72.5754 14.4595L64.2405 24.9408C63.9014 25.3677 64.2052 25.9976 64.7504 25.9976H70.7732L79.7757 13.1672L71.2277 0.800659H71.2283Z" fill="#80CDED"/>
<path d="M91.8819 0.800659H85.0143L81.1892 6.33424L84.5615 11.2131L92.244 1.55189C92.4854 1.24869 92.2693 0.800659 91.8813 0.800659H91.8819Z" fill="#12113B"/>
<path d="M85.4688 25.9971H91.4916C92.0368 25.9971 92.3405 25.3671 92.0014 24.9403L84.3872 15.365L81.198 19.9101L85.4688 25.9965V25.9971Z" fill="#12113B"/>
<path d="M98.2962 0.773621H105.164C105.551 0.773621 105.767 1.22165 105.527 1.52486L96.9492 12.3118C96.4558 12.9323 96.4558 13.8119 96.9492 14.4324L105.284 24.9138C105.623 25.3406 105.319 25.9706 104.774 25.9706H98.7513L89.7489 13.1401L98.2968 0.773621H98.2962Z" fill="#1B4279"/>
</svg>
