<svg width="220" height="19" viewBox="0 0 220 19" fill="none" xmlns="http://www.w3.org/2000/svg">
<path d="M0 18.7203V0.641357H3.46072L14.1273 13.6581H12.4487V0.641357H16.5809V18.7203H13.1201L2.45353 5.70357H4.13218V18.7203H0Z" fill="#12113B"/>
<path d="M26.0334 18.7203V0.641357H39.6957V3.99865H30.1914V15.3626H40.0314V18.7199H26.0334V18.7203ZM29.8816 11.1787V7.89853H38.5851V11.1787H29.8816Z" fill="#12113B"/>
<path d="M82.318 18.3892L90.3501 0.310303H94.4823L102.592 18.3892H98.2011L91.5637 2.42811H93.2424L86.6049 18.3892H82.3176H82.318ZM86.373 14.5152L87.4319 11.3385H96.7811L97.8658 14.5152H86.373Z" fill="#12113B"/>
<path d="M115.609 18.699C114.162 18.699 112.772 18.5053 111.437 18.1179C110.103 17.7304 109.031 17.2268 108.222 16.6071L109.643 13.4562C110.4 14.0073 111.312 14.4596 112.38 14.8123C113.448 15.1654 114.524 15.3417 115.609 15.3417C116.435 15.3417 117.102 15.2557 117.61 15.0836C118.118 14.9115 118.492 14.6834 118.734 14.399C118.974 14.115 119.095 13.7835 119.095 13.4045C119.095 12.9225 118.906 12.5393 118.527 12.2553C118.148 11.9713 117.645 11.7386 117.016 11.558C116.388 11.3774 115.703 11.2053 114.963 11.0417C114.222 10.8781 113.478 10.6801 112.729 10.4478C111.98 10.2155 111.291 9.90565 110.663 9.5182C110.034 9.13076 109.535 8.62335 109.165 7.99429C108.794 7.36607 108.61 6.57803 108.61 5.63104C108.61 4.598 108.885 3.65524 109.436 2.8032C109.987 1.95074 110.827 1.2708 111.954 0.762971C113.082 0.255138 114.498 0.0012207 116.202 0.0012207C117.339 0.0012207 118.462 0.139412 119.573 0.414523C120.684 0.690059 121.652 1.08598 122.478 1.60272L121.161 4.75357C120.352 4.28855 119.517 3.9401 118.656 3.70738C117.795 3.47509 116.968 3.35851 116.177 3.35851C115.385 3.35851 114.687 3.4488 114.188 3.62981C113.689 3.81081 113.323 4.05583 113.091 4.3657C112.858 4.67557 112.742 5.0202 112.742 5.39874C112.742 5.88114 112.931 6.26858 113.31 6.56108C113.688 6.85399 114.188 7.08205 114.808 7.24568C115.428 7.40973 116.116 7.57293 116.874 7.73655C117.631 7.9006 118.38 8.10238 119.121 8.34358C119.861 8.58478 120.542 8.89041 121.161 9.26047C121.781 9.63096 122.285 10.1303 122.672 10.7585C123.06 11.3872 123.253 12.1663 123.253 13.0959C123.253 14.112 122.973 15.0416 122.414 15.8852C121.854 16.7292 121.007 17.4091 119.87 17.9254C118.734 18.4417 117.313 18.7003 115.609 18.7003V18.699Z" fill="#12113B"/>
<path d="M134.772 18.3892V3.71967H128.986V0.310669H144.741V3.71967H138.956V18.3892H134.772Z" fill="#12113B"/>
<path d="M160.676 18.6991C159.247 18.6991 157.93 18.4668 156.724 18.0018C155.519 17.5368 154.468 16.8827 153.574 16.0391C152.678 15.1956 151.985 14.2053 151.494 13.0688C151.003 11.9324 150.758 10.6929 150.758 9.34997C150.758 8.00706 151.004 6.74595 151.494 5.61795C151.985 4.49038 152.678 3.50439 153.574 2.66083C154.469 1.81727 155.515 1.16276 156.712 0.698168C157.908 0.23315 159.221 0.000854492 160.65 0.000854492C162.079 0.000854492 163.392 0.229335 164.589 0.685452C165.785 1.14199 166.831 1.79183 167.727 2.63539C168.622 3.47938 169.315 4.46919 169.806 5.60566C170.297 6.74214 170.542 7.99053 170.542 9.3504C170.542 10.7103 170.296 11.9375 169.806 13.0824C169.315 14.2278 168.622 15.2218 167.727 16.0654C166.831 16.9094 165.785 17.5592 164.589 18.0153C163.391 18.4715 162.088 18.6999 160.676 18.6999V18.6991ZM160.65 15.1608C161.459 15.1608 162.204 15.0188 162.884 14.7348C163.564 14.4508 164.163 14.0464 164.679 13.5207C165.196 12.9955 165.596 12.3843 165.88 11.6869C166.164 10.9896 166.306 10.2109 166.306 9.34955C166.306 8.48818 166.164 7.70948 165.88 7.01216C165.596 6.31485 165.196 5.70401 164.679 5.17837C164.163 4.65316 163.564 4.24876 162.884 3.96432C162.204 3.68031 161.459 3.5383 160.65 3.5383C159.841 3.5383 159.091 3.68031 158.403 3.96432C157.714 4.24833 157.116 4.65316 156.608 5.17837C156.1 5.70358 155.704 6.31485 155.42 7.01216C155.136 7.70948 154.994 8.48861 154.994 9.34955C154.994 10.2105 155.136 10.9896 155.42 11.6869C155.704 12.3843 156.1 12.9955 156.608 13.5207C157.116 14.0459 157.714 14.4503 158.403 14.7348C159.091 15.0188 159.84 15.1608 160.65 15.1608Z" fill="#12113B"/>
<path d="M187.51 18.6991C186.116 18.6991 184.82 18.4706 183.623 18.0145C182.426 17.5584 181.389 16.9085 180.511 16.0645C179.633 15.221 178.949 14.2308 178.458 13.0943C177.967 11.9578 177.722 10.7098 177.722 9.34954C177.722 7.98925 177.967 6.74086 178.458 5.60481C178.949 4.46833 179.637 3.47853 180.524 2.63454C181.411 1.79098 182.452 1.14114 183.649 0.6846C184.846 0.228483 186.141 0 187.536 0C189.102 0 190.523 0.271296 191.797 0.813465C193.071 1.35563 194.138 2.15256 195 3.20257L192.288 5.68196C191.685 4.97616 191.001 4.44247 190.235 4.08089C189.468 3.7193 188.637 3.53872 187.742 3.53872C186.898 3.53872 186.124 3.68072 185.418 3.96474C184.712 4.24875 184.101 4.64934 183.584 5.16565C183.068 5.68196 182.668 6.29365 182.384 6.99944C182.1 7.70566 181.957 8.48903 181.957 9.34954C181.957 10.2101 182.1 10.9939 182.384 11.6996C182.668 12.4059 183.068 13.0167 183.584 13.5334C184.101 14.0497 184.712 14.4503 185.418 14.7343C186.124 15.0184 186.899 15.1604 187.742 15.1604C188.638 15.1604 189.469 14.9755 190.235 14.6051C191.001 14.235 191.685 13.6971 192.288 12.9908L195 15.4702C194.138 16.5207 193.071 17.3214 191.797 17.8721C190.523 18.4227 189.094 18.6987 187.51 18.6987L187.51 18.6991Z" fill="#12113B"/>
<path d="M202.722 18.3892V0.310303H206.88V18.3892H202.722ZM206.441 14.2566L206.235 9.42713L214.886 0.310303H219.535L211.761 8.70395L209.386 11.1833L206.441 14.2566ZM215.093 18.3892L208.662 10.5377L211.399 7.54204L220 18.3892H215.093Z" fill="#12113B"/>
<path d="M51.2851 0.576538H46.3403C46.0614 0.576538 45.9058 0.899127 46.0792 1.11744L52.255 8.88414C52.6103 9.33093 52.6103 9.96423 52.255 10.411L46.2539 17.9577C46.0097 18.265 46.2284 18.7186 46.621 18.7186H50.9575L57.4393 9.48056L51.2847 0.576538H51.2851Z" fill="#80CDED"/>
<path d="M66.156 0.576538H61.2112L58.4571 4.56078L60.8852 8.07364L66.4167 1.11744C66.5905 0.899127 66.4349 0.576538 66.1556 0.576538H66.156Z" fill="#12113B"/>
<path d="M61.5385 18.7182H65.875C66.2675 18.7182 66.4862 18.2646 66.2421 17.9573L60.7598 11.063L58.4635 14.3355L61.5385 18.7178V18.7182Z" fill="#12113B"/>
<path d="M70.7744 0.557007H75.7192C75.9981 0.557007 76.1537 0.879595 75.9803 1.0979L69.8045 8.8646C69.4493 9.31139 69.4493 9.9447 69.8045 10.3915L75.8056 17.9382C76.0498 18.2455 75.8311 18.6991 75.4386 18.6991H71.102L64.6202 9.46103L70.7748 0.557007H70.7744Z" fill="#1B4279"/>
</svg>
