<svg width="48" height="48" viewBox="0 0 48 48" fill="none" xmlns="http://www.w3.org/2000/svg">
<path d="M39.0248 0H8.97527C4.01837 0 0 4.01836 0 8.97525V39.0247C0 43.9816 4.01837 48 8.97527 48H39.0248C43.9816 48 48 43.9816 48 39.0247V8.97525C48 4.01836 43.9816 0 39.0248 0Z" fill="#1B4279"/>
<path d="M14.9736 20.7304C14.9446 20.7585 14.8793 20.7445 14.8617 20.7599C14.8526 20.7676 14.8345 20.8623 14.7869 20.8763C14.752 20.8464 14.8218 20.8197 14.8159 20.788C14.8127 20.7708 14.771 20.7332 14.7493 20.7368C14.7108 20.7431 14.5545 20.9533 14.4947 20.9769C14.5137 20.8994 14.6397 20.7884 14.7063 20.7341C14.7267 20.7173 14.7679 20.7187 14.7738 20.7119C14.7914 20.6924 14.762 20.5972 14.7801 20.5764C14.7837 20.5719 14.8821 20.5343 14.8875 20.5343C14.9763 20.5302 15.0347 20.6715 14.9736 20.73V20.7304Z" fill="white"/>
<path d="M12.9924 13.7644H7.40682C7.0915 13.7644 6.91571 14.1287 7.11188 14.3756L14.0883 23.1488C14.4897 23.6534 14.4897 24.3688 14.0883 24.8735L7.30942 33.3984C7.03352 33.7455 7.28042 34.2578 7.72395 34.2578H12.6227L19.9443 23.8224L12.9919 13.7644H12.9924Z" fill="white"/>
<path d="M29.7904 13.7644H24.2048L21.0937 18.2654L23.8365 22.2336L30.0848 14.3756C30.281 14.1287 30.1052 13.7644 29.7899 13.7644H29.7904Z" fill="white"/>
<path d="M24.5745 34.2578H29.4732C29.9168 34.2578 30.1637 33.7454 29.8878 33.3984L23.6951 25.6106L21.1014 29.3074L24.5749 34.2578H24.5745Z" fill="white"/>
<path d="M35.0076 13.7422H40.5932C40.9085 13.7422 41.0843 14.1064 40.8881 14.3533L33.9117 23.1265C33.5103 23.6312 33.5103 24.3466 33.9117 24.8513L40.6906 33.3762C40.9665 33.7232 40.7196 34.2356 40.2761 34.2356H35.3773L28.0556 23.8002L35.0081 13.7422H35.0076Z" fill="white"/>
</svg>
