<svg width="48" height="48" viewBox="0 0 48 48" fill="none" xmlns="http://www.w3.org/2000/svg">
<path d="M39.0247 0H8.97525C4.01835 0 0 4.01833 0 8.97522V39.0247C0 43.9816 4.01835 48 8.97525 48H39.0247C43.9816 48 48 43.9816 48 39.0247V8.97522C48 4.01833 43.9816 0 39.0247 0Z" fill="white"/>
<path d="M14.9735 20.7304C14.9445 20.7585 14.8793 20.7445 14.8616 20.7599C14.8525 20.7676 14.8344 20.8623 14.7869 20.8763C14.752 20.8464 14.8217 20.8197 14.8159 20.788C14.8127 20.7707 14.771 20.7331 14.7493 20.7368C14.7107 20.7431 14.5545 20.9533 14.4947 20.9769C14.5137 20.8994 14.6396 20.7884 14.7062 20.7341C14.7266 20.7173 14.7678 20.7187 14.7737 20.7119C14.7914 20.6924 14.7619 20.5972 14.7801 20.5764C14.7837 20.5719 14.882 20.5343 14.8874 20.5343C14.9762 20.5302 15.0347 20.6716 14.9735 20.73V20.7304Z" fill="black"/>
<path d="M12.9924 13.7644H7.40678C7.09146 13.7644 6.91568 14.1286 7.11185 14.3755L14.0883 23.1487C14.4897 23.6534 14.4897 24.3688 14.0883 24.8735L7.30937 33.3984C7.03347 33.7454 7.28038 34.2578 7.72391 34.2578H12.6227L19.9443 23.8224L12.9919 13.7644H12.9924Z" fill="black"/>
<path d="M29.7903 13.7644H24.2047L21.0937 18.2654L23.8364 22.2336L30.0848 14.3755C30.281 14.1286 30.1052 13.7644 29.7899 13.7644H29.7903Z" fill="black"/>
<path d="M24.5744 34.2578H29.4732C29.9167 34.2578 30.1636 33.7455 29.8877 33.3984L23.695 25.6106L21.1014 29.3074L24.5749 34.2578H24.5744Z" fill="black"/>
<path d="M35.0076 13.7422H40.5931C40.9085 13.7422 41.0842 14.1064 40.8881 14.3534L33.9117 23.1265C33.5103 23.6312 33.5103 24.3466 33.9117 24.8513L40.6906 33.3762C40.9665 33.7232 40.7195 34.2356 40.276 34.2356H35.3773L28.0556 23.8002L35.008 13.7422H35.0076Z" fill="black"/>
</svg>
