<svg width="48" height="48" viewBox="0 0 48 48" fill="none" xmlns="http://www.w3.org/2000/svg">
<path d="M39.0248 0H8.97526C4.01836 0 0 4.01837 0 8.97527V39.0248C0 43.9816 4.01836 48 8.97526 48H39.0248C43.9816 48 48 43.9816 48 39.0248V8.97527C48 4.01837 43.9816 0 39.0248 0Z" fill="black"/>
<path d="M14.974 20.7299C14.945 20.758 14.8797 20.744 14.8621 20.7594C14.853 20.7671 14.8349 20.8618 14.7873 20.8758C14.7524 20.8459 14.8222 20.8192 14.8163 20.7875C14.8131 20.7703 14.7715 20.7327 14.7497 20.7363C14.7112 20.7426 14.5549 20.9528 14.4951 20.9764C14.5141 20.8989 14.6401 20.7879 14.7067 20.7336C14.7271 20.7168 14.7683 20.7182 14.7742 20.7114C14.7918 20.6919 14.7624 20.5967 14.7805 20.5759C14.7841 20.5714 14.8825 20.5338 14.8879 20.5338C14.9767 20.5297 15.0351 20.671 14.974 20.7295V20.7299Z" fill="white"/>
<path d="M12.9923 13.7639H7.40677C7.09145 13.7639 6.91567 14.1282 7.11183 14.3751L14.0883 23.1483C14.4897 23.653 14.4897 24.3683 14.0883 24.873L7.30937 33.3979C7.03346 33.745 7.28037 34.2574 7.7239 34.2574H12.6227L19.9443 23.822L12.9919 13.7639H12.9923Z" fill="white"/>
<path d="M29.7908 13.7639H24.2052L21.0941 18.2649L23.8369 22.2331L30.0852 14.3751C30.2814 14.1282 30.1056 13.7639 29.7903 13.7639H29.7908Z" fill="white"/>
<path d="M24.5744 34.2574H29.4732C29.9167 34.2574 30.1636 33.745 29.8877 33.3979L23.6951 25.6101L21.1014 29.3069L24.5749 34.2574H24.5744Z" fill="white"/>
<path d="M35.008 13.7422H40.5936C40.9089 13.7422 41.0847 14.1064 40.8885 14.3534L33.9121 23.1265C33.5107 23.6312 33.5107 24.3466 33.9121 24.8513L40.691 33.3762C40.9669 33.7232 40.72 34.2356 40.2765 34.2356H35.3777L28.0561 23.8002L35.0085 13.7422H35.008Z" fill="white"/>
</svg>
