<svg width="192" height="17" viewBox="0 0 192 17" fill="none" xmlns="http://www.w3.org/2000/svg">
<path d="M0 16.3377V0.559731H3.02027L12.3293 11.9198H10.8643V0.559731H14.4706V16.3377H11.4503L2.14127 4.97768H3.60626V16.3377H0Z" fill="white"/>
<path d="M22.7202 16.3377V0.559731H34.6437V3.48974H26.349V13.4073H34.9367V16.3373H22.7202V16.3377ZM26.0786 9.75593V6.89327H33.6744V9.75593H26.0786Z" fill="white"/>
<path d="M71.8407 16.0488L78.8505 0.270811H82.4568L89.5343 16.0488H85.7023L79.9097 2.11908H81.3747L75.582 16.0488H71.8403H71.8407ZM75.3796 12.6678L76.3038 9.8954H84.463L85.4097 12.6678H75.3796Z" fill="white"/>
<path d="M100.895 16.3192C99.6323 16.3192 98.4189 16.1501 97.2543 15.812C96.0897 15.4739 95.1541 15.0344 94.4482 14.4935L95.6879 11.7437C96.349 12.2246 97.1452 12.6193 98.0771 12.9271C99.0086 13.2353 99.9479 13.3892 100.895 13.3892C101.616 13.3892 102.198 13.3141 102.642 13.1639C103.085 13.0137 103.411 12.8147 103.622 12.5664C103.832 12.3186 103.937 12.0293 103.937 11.6985C103.937 11.2779 103.772 10.9435 103.442 10.6956C103.111 10.4477 102.671 10.2446 102.123 10.087C101.575 9.92945 100.977 9.77924 100.331 9.63644C99.6849 9.49364 99.0352 9.32088 98.3815 9.11815C97.7278 8.91542 97.1267 8.64498 96.5784 8.30684C96.0298 7.96871 95.594 7.52589 95.271 6.97689C94.9477 6.42862 94.7864 5.74089 94.7864 4.91442C94.7864 4.01285 95.0265 3.19007 95.5078 2.44647C95.9883 1.7025 96.7212 1.10911 97.7053 0.665909C98.6893 0.222709 99.9253 0.00111961 101.413 0.00111961C102.405 0.00111961 103.385 0.121723 104.354 0.36182C105.324 0.602287 106.169 0.947812 106.89 1.39878L105.741 4.14862C105.034 3.74278 104.306 3.43868 103.554 3.23558C102.802 3.03284 102.081 2.93111 101.39 2.93111C100.699 2.93111 100.09 3.0099 99.6549 3.16787C99.2191 3.32584 98.8998 3.53968 98.6971 3.81012C98.4944 4.08055 98.3926 4.38131 98.3926 4.71167C98.3926 5.13267 98.5576 5.47082 98.8884 5.72609C99.2187 5.98172 99.6545 6.18075 100.196 6.32355C100.737 6.46672 101.337 6.60915 101.999 6.75196C102.66 6.89513 103.314 7.07121 103.96 7.28172C104.606 7.49222 105.2 7.75895 105.741 8.08191C106.281 8.40525 106.721 8.84106 107.059 9.38933C107.397 9.93796 107.566 10.6179 107.566 11.4292C107.566 12.316 107.322 13.1273 106.834 13.8635C106.345 14.6001 105.606 15.1935 104.614 15.6441C103.622 16.0947 102.382 16.3203 100.895 16.3203V16.3192Z" fill="white"/>
<path d="M117.619 16.0488V3.24631H112.57V0.271179H126.319V3.24631H121.27V16.0488H117.619Z" fill="white"/>
<path d="M140.226 16.3192C138.979 16.3192 137.829 16.1165 136.777 15.7106C135.725 15.3048 134.809 14.734 134.028 13.9978C133.246 13.2616 132.641 12.3974 132.213 11.4056C131.785 10.4137 131.571 9.33199 131.571 8.15999C131.571 6.98799 131.785 5.88739 132.213 4.90295C132.641 3.91889 133.246 3.05837 134.028 2.32218C134.809 1.58598 135.722 1.01478 136.766 0.609318C137.811 0.203483 138.956 0.000743866 140.204 0.000743866C141.451 0.000743866 142.596 0.200143 143.641 0.598208C144.685 0.996644 145.598 1.56378 146.379 2.29998C147.161 3.03654 147.766 3.90039 148.194 4.89222C148.623 5.88406 148.836 6.97355 148.836 8.16035C148.836 9.34715 148.622 10.4181 148.194 11.4174C147.766 12.417 147.161 13.2845 146.379 14.0207C145.598 14.7573 144.685 15.3244 143.641 15.7225C142.596 16.1206 141.458 16.32 140.226 16.32V16.3192ZM140.204 13.2312C140.91 13.2312 141.559 13.1073 142.153 12.8594C142.747 12.6116 143.269 12.2586 143.72 11.7999C144.171 11.3415 144.52 10.8081 144.768 10.1995C145.016 9.59095 145.139 8.91134 145.139 8.15961C145.139 7.40787 145.016 6.72827 144.768 6.1197C144.52 5.51114 144.171 4.97805 143.72 4.51931C143.269 4.06094 142.747 3.70801 142.153 3.45977C141.559 3.2119 140.909 3.08798 140.204 3.08798C139.498 3.08798 138.843 3.2119 138.242 3.45977C137.641 3.70764 137.119 4.06094 136.676 4.51931C136.233 4.97768 135.887 5.51114 135.639 6.1197C135.391 6.72827 135.267 7.40824 135.267 8.15961C135.267 8.91097 135.391 9.59095 135.639 10.1995C135.887 10.8081 136.233 11.3415 136.676 11.7999C137.119 12.2583 137.641 12.6112 138.242 12.8594C138.843 13.1073 139.497 13.2312 140.204 13.2312Z" fill="white"/>
<path d="M163.645 16.3192C162.428 16.3192 161.297 16.1198 160.253 15.7217C159.208 15.3237 158.303 14.7565 157.537 14.02C156.77 13.2838 156.173 12.4196 155.745 11.4277C155.316 10.4359 155.103 9.34677 155.103 8.1596C155.103 6.97244 155.317 5.88294 155.745 4.89148C156.173 3.89964 156.774 3.0358 157.548 2.29923C158.322 1.56303 159.231 0.9959 160.275 0.597465C161.32 0.199399 162.45 0 163.667 0C165.035 0 166.274 0.236765 167.386 0.709931C168.498 1.1831 169.43 1.87861 170.181 2.79498L167.815 4.9588C167.289 4.34284 166.691 3.87707 166.023 3.5615C165.354 3.24594 164.629 3.08834 163.848 3.08834C163.111 3.08834 162.435 3.21228 161.819 3.46015C161.203 3.70801 160.67 4.0576 160.219 4.5082C159.768 4.9588 159.419 5.49264 159.171 6.10861C158.923 6.72494 158.799 7.40861 158.799 8.1596C158.799 8.9106 158.923 9.59464 159.171 10.2106C159.419 10.8269 159.768 11.36 160.219 11.811C160.67 12.2616 161.203 12.6112 161.819 12.8591C162.435 13.1069 163.112 13.2309 163.848 13.2309C164.629 13.2309 165.354 13.0696 166.023 12.7462C166.691 12.4233 167.288 11.9538 167.815 11.3375L170.181 13.5013C169.43 14.418 168.498 15.1169 167.386 15.5974C166.274 16.078 165.027 16.3188 163.645 16.3188L163.645 16.3192Z" fill="white"/>
<path d="M176.921 16.0488V0.270811H180.55V16.0488H176.921ZM180.166 12.4421L179.986 8.2273L187.537 0.270811H191.594L184.81 7.59617L182.736 9.76001L180.166 12.4421ZM187.718 16.0488L182.105 9.19658L184.494 6.58213L192 16.0488H187.718Z" fill="white"/>
<path d="M44.7578 0.503136H40.4423C40.1989 0.503136 40.0632 0.784658 40.2145 0.975182L45.6043 7.7534C45.9143 8.14333 45.9143 8.69603 45.6043 9.08596L40.3669 15.6722C40.1538 15.9404 40.3447 16.3362 40.6873 16.3362H44.4718L50.1287 8.27391L44.7574 0.503136H44.7578Z" fill="white"/>
<path d="M57.7356 0.503136H53.4202L51.0166 3.9803L53.1357 7.04605L57.9631 0.975182C58.1148 0.784658 57.979 0.503136 57.7352 0.503136H57.7356Z" fill="white"/>
<path d="M53.7056 16.3359H57.4902C57.8327 16.3359 58.0236 15.94 57.8105 15.6718L53.026 9.65493L51.022 12.5109L53.7056 16.3355V16.3359Z" fill="white"/>
<path d="M61.7664 0.486122H66.0819C66.3253 0.486122 66.4611 0.767645 66.3098 0.958169L60.92 7.73639C60.61 8.12631 60.61 8.67902 60.92 9.06895L66.1574 15.6551C66.3705 15.9234 66.1796 16.3192 65.837 16.3192H62.0524L56.3955 8.2569L61.7668 0.486122H61.7664Z" fill="white"/>
</svg>
