<svg width="221" height="19" viewBox="0 0 221 19" fill="none" xmlns="http://www.w3.org/2000/svg">
<path d="M0 18.7203V0.641357H3.46072L14.1273 13.6581H12.4487V0.641357H16.5809V18.7203H13.1201L2.45353 5.70357H4.13218V18.7203H0Z" fill="#12113B"/>
<path d="M26.0334 18.7203V0.641357H39.6957V3.99865H30.1914V15.3626H40.0314V18.7199H26.0334V18.7203ZM29.8816 11.1787V7.89853H38.5851V11.1787H29.8816Z" fill="#12113B"/>
<path d="M82.318 18.3892L90.3501 0.310303H94.4823L102.592 18.3892H98.2011L91.5637 2.42811H93.2424L86.6049 18.3892H82.3176H82.318ZM86.373 14.5152L87.4319 11.3385H96.7811L97.8658 14.5152H86.373Z" fill="#12113B"/>
<path d="M115.609 18.699C114.162 18.699 112.772 18.5053 111.437 18.1179C110.103 17.7304 109.031 17.2268 108.222 16.6071L109.643 13.4562C110.4 14.0073 111.312 14.4596 112.38 14.8123C113.448 15.1654 114.524 15.3417 115.609 15.3417C116.435 15.3417 117.102 15.2557 117.61 15.0836C118.118 14.9115 118.492 14.6834 118.734 14.399C118.974 14.115 119.095 13.7835 119.095 13.4045C119.095 12.9225 118.906 12.5393 118.527 12.2553C118.148 11.9713 117.645 11.7386 117.016 11.558C116.388 11.3774 115.703 11.2053 114.963 11.0417C114.222 10.8781 113.478 10.6801 112.729 10.4478C111.98 10.2155 111.291 9.90565 110.663 9.5182C110.034 9.13076 109.535 8.62335 109.165 7.99429C108.794 7.36607 108.61 6.57803 108.61 5.63104C108.61 4.598 108.885 3.65524 109.436 2.8032C109.987 1.95074 110.827 1.2708 111.954 0.762971C113.082 0.255138 114.498 0.0012207 116.202 0.0012207C117.339 0.0012207 118.462 0.139412 119.573 0.414523C120.684 0.690059 121.652 1.08598 122.478 1.60272L121.161 4.75357C120.352 4.28855 119.517 3.9401 118.656 3.70738C117.795 3.47509 116.968 3.35851 116.177 3.35851C115.385 3.35851 114.687 3.4488 114.188 3.62981C113.689 3.81081 113.323 4.05583 113.091 4.3657C112.858 4.67557 112.742 5.0202 112.742 5.39874C112.742 5.88114 112.931 6.26858 113.31 6.56108C113.688 6.85399 114.188 7.08205 114.808 7.24568C115.428 7.40973 116.116 7.57293 116.874 7.73655C117.631 7.9006 118.38 8.10238 119.121 8.34358C119.861 8.58478 120.542 8.89041 121.161 9.26047C121.781 9.63096 122.285 10.1303 122.672 10.7585C123.06 11.3872 123.253 12.1663 123.253 13.0959C123.253 14.112 122.973 15.0416 122.414 15.8852C121.854 16.7292 121.007 17.4091 119.87 17.9254C118.734 18.4417 117.313 18.7003 115.609 18.7003V18.699Z" fill="#12113B"/>
<path d="M134.772 18.3892V3.71967H128.986V0.310669H144.741V3.71967H138.956V18.3892H134.772Z" fill="#12113B"/>
<path d="M160.676 18.6991C159.247 18.6991 157.93 18.4668 156.724 18.0018C155.519 17.5368 154.468 16.8827 153.574 16.0391C152.678 15.1956 151.985 14.2053 151.494 13.0688C151.003 11.9324 150.758 10.6929 150.758 9.34997C150.758 8.00706 151.004 6.74595 151.494 5.61795C151.985 4.49038 152.678 3.50439 153.574 2.66083C154.469 1.81727 155.515 1.16276 156.712 0.698168C157.908 0.23315 159.221 0.000854492 160.65 0.000854492C162.079 0.000854492 163.392 0.229335 164.589 0.685452C165.785 1.14199 166.831 1.79183 167.727 2.63539C168.622 3.47938 169.315 4.46919 169.806 5.60566C170.297 6.74214 170.542 7.99053 170.542 9.3504C170.542 10.7103 170.296 11.9375 169.806 13.0824C169.315 14.2278 168.622 15.2218 167.727 16.0654C166.831 16.9094 165.785 17.5592 164.589 18.0153C163.391 18.4715 162.088 18.6999 160.676 18.6999V18.6991ZM160.65 15.1608C161.459 15.1608 162.204 15.0188 162.884 14.7348C163.564 14.4508 164.163 14.0464 164.679 13.5207C165.196 12.9955 165.596 12.3843 165.88 11.6869C166.164 10.9896 166.306 10.2109 166.306 9.34955C166.306 8.48818 166.164 7.70948 165.88 7.01216C165.596 6.31485 165.196 5.70401 164.679 5.17837C164.163 4.65316 163.564 4.24876 162.884 3.96432C162.204 3.68031 161.459 3.5383 160.65 3.5383C159.841 3.5383 159.091 3.68031 158.403 3.96432C157.714 4.24833 157.116 4.65316 156.608 5.17837C156.1 5.70358 155.704 6.31485 155.42 7.01216C155.136 7.70948 154.994 8.48861 154.994 9.34955C154.994 10.2105 155.136 10.9896 155.42 11.6869C155.704 12.3843 156.1 12.9955 156.608 13.5207C157.116 14.0459 157.714 14.4503 158.403 14.7348C159.091 15.0188 159.84 15.1608 160.65 15.1608Z" fill="#12113B"/>
<path d="M187.51 18.6991C186.116 18.6991 184.82 18.4706 183.623 18.0145C182.426 17.5584 181.389 16.9085 180.511 16.0645C179.633 15.221 178.949 14.2308 178.458 13.0943C177.967 11.9578 177.722 10.7098 177.722 9.34954C177.722 7.98925 177.967 6.74086 178.458 5.60481C178.949 4.46833 179.637 3.47853 180.524 2.63454C181.411 1.79098 182.452 1.14114 183.649 0.6846C184.846 0.228483 186.141 0 187.536 0C189.102 0 190.523 0.271296 191.797 0.813465C193.071 1.35563 194.138 2.15256 195 3.20257L192.288 5.68196C191.685 4.97616 191.001 4.44247 190.235 4.08089C189.468 3.7193 188.637 3.53872 187.742 3.53872C186.898 3.53872 186.124 3.68072 185.418 3.96474C184.712 4.24875 184.101 4.64934 183.584 5.16565C183.068 5.68196 182.668 6.29365 182.384 6.99944C182.1 7.70566 181.957 8.48903 181.957 9.34954C181.957 10.2101 182.1 10.9939 182.384 11.6996C182.668 12.4059 183.068 13.0167 183.584 13.5334C184.101 14.0497 184.712 14.4503 185.418 14.7343C186.124 15.0184 186.899 15.1604 187.742 15.1604C188.638 15.1604 189.469 14.9755 190.235 14.6051C191.001 14.235 191.685 13.6971 192.288 12.9908L195 15.4702C194.138 16.5207 193.071 17.3214 191.797 17.8721C190.523 18.4227 189.094 18.6987 187.51 18.6987L187.51 18.6991Z" fill="#12113B"/>
<path d="M202.722 18.3892V0.310303H206.88V18.3892H202.722ZM206.441 14.2566L206.235 9.42713L214.886 0.310303H219.535L211.761 8.70395L209.386 11.1833L206.441 14.2566ZM215.093 18.3892L208.662 10.5377L211.399 7.54204L220 18.3892H215.093Z" fill="#12113B"/>
<path d="M51.2851 0.576538H46.3403C46.0614 0.576538 45.9058 0.899127 46.0792 1.11744L52.255 8.88414C52.6103 9.33093 52.6103 9.96423 52.255 10.411L46.2539 17.9577C46.0097 18.265 46.2284 18.7186 46.621 18.7186H50.9575L57.4393 9.48056L51.2847 0.576538H51.2851Z" fill="#80CDED"/>
<path d="M66.156 0.576538H61.2112L58.4571 4.56078L60.8852 8.07364L66.4167 1.11744C66.5905 0.899127 66.4349 0.576538 66.1556 0.576538H66.156Z" fill="#12113B"/>
<path d="M61.5385 18.7182H65.875C66.2675 18.7182 66.4862 18.2646 66.2421 17.9573L60.7598 11.063L58.4635 14.3355L61.5385 18.7178V18.7182Z" fill="#12113B"/>
<path d="M70.7744 0.557007H75.7192C75.9981 0.557007 76.1537 0.879595 75.9803 1.0979L69.8045 8.8646C69.4493 9.31139 69.4493 9.9447 69.8045 10.3915L75.8056 17.9382C76.0498 18.2455 75.8311 18.6991 75.4386 18.6991H71.102L64.6202 9.46103L70.7748 0.557007H70.7744Z" fill="#1B4279"/>
<path d="M0.370117 18.86V0.781128H3.83084L14.4974 13.7978H12.8188V0.781128H16.951V18.86H13.4903L2.82365 5.84334H4.5023V18.86H0.370117Z" fill="black"/>
<path d="M26.4035 18.86V0.781128H40.0658V4.13842H30.5616V15.5023H40.4016V18.8596H26.4035V18.86ZM30.2517 11.3189V8.03872H38.9552V11.3189H30.2517Z" fill="black"/>
<path d="M115.979 18.8388C114.532 18.8388 113.142 18.6451 111.808 18.2576C110.473 17.8702 109.401 17.3666 108.592 16.7469L110.013 13.596C110.77 14.1471 111.683 14.5994 112.75 14.9521C113.818 15.3052 114.894 15.4815 115.979 15.4815C116.805 15.4815 117.472 15.3955 117.98 15.2234C118.488 15.0513 118.863 14.8232 119.104 14.5388C119.345 14.2548 119.465 13.9233 119.465 13.5443C119.465 13.0623 119.276 12.6791 118.897 12.3951C118.518 12.1111 118.015 11.8784 117.387 11.6978C116.758 11.5172 116.073 11.3451 115.333 11.1815C114.593 11.0178 113.848 10.8199 113.099 10.5876C112.35 10.3553 111.661 10.0454 111.033 9.65798C110.404 9.27053 109.905 8.76313 109.535 8.13406C109.165 7.50584 108.98 6.71781 108.98 5.77081C108.98 4.73777 109.255 3.79502 109.806 2.94298C110.357 2.09051 111.197 1.41058 112.324 0.902749C113.452 0.394917 114.868 0.140991 116.573 0.140991C117.709 0.140991 118.832 0.279183 119.943 0.554294C121.054 0.829829 122.022 1.22575 122.848 1.74249L121.531 4.89334C120.722 4.42832 119.887 4.07988 119.026 3.84716C118.165 3.61486 117.339 3.49829 116.547 3.49829C115.755 3.49829 115.057 3.58858 114.558 3.76958C114.059 3.95059 113.693 4.19561 113.461 4.50548C113.228 4.81535 113.112 5.15997 113.112 5.53852C113.112 6.02092 113.301 6.40836 113.68 6.70085C114.058 6.99376 114.558 7.22183 115.178 7.38545C115.798 7.5495 116.486 7.71271 117.244 7.87633C118.002 8.04038 118.751 8.24215 119.491 8.48335C120.231 8.72455 120.912 9.03019 121.531 9.40025C122.151 9.77074 122.655 10.2701 123.042 10.8983C123.43 11.527 123.623 12.3061 123.623 13.2357C123.623 14.2518 123.343 15.1814 122.784 16.025C122.224 16.869 121.377 17.5489 120.24 18.0652C119.104 18.5815 117.683 18.8401 115.979 18.8401V18.8388Z" fill="black"/>
<path d="M135.142 18.5289V3.85945H129.357V0.450439H145.111V3.85945H139.326V18.5289H135.142Z" fill="black"/>
<path d="M161.046 18.8389C159.617 18.8389 158.3 18.6066 157.095 18.1415C155.889 17.6765 154.839 17.0225 153.944 16.1789C153.048 15.3353 152.355 14.3451 151.864 13.2086C151.374 12.0722 151.129 10.8327 151.129 9.48975C151.129 8.14683 151.374 6.88573 151.864 5.75773C152.355 4.63015 153.048 3.64416 153.944 2.8006C154.839 1.95704 155.885 1.30254 157.082 0.837949C158.278 0.372931 159.591 0.140625 161.02 0.140625C162.45 0.140625 163.762 0.369113 164.959 0.82523C166.155 1.28177 167.201 1.93161 168.097 2.77517C168.992 3.61916 169.685 4.60897 170.176 5.74544C170.667 6.88192 170.912 8.1303 170.912 9.49017C170.912 10.85 170.667 12.0772 170.176 13.2222C169.685 14.3676 168.992 15.3616 168.097 16.2052C167.202 17.0492 166.155 17.699 164.959 18.1551C163.762 18.6112 162.458 18.8397 161.046 18.8397V18.8389ZM161.02 15.3006C161.829 15.3006 162.574 15.1586 163.254 14.8746C163.934 14.5905 164.533 14.1861 165.049 13.6605C165.566 13.1353 165.966 12.524 166.25 11.8267C166.534 11.1294 166.676 10.3507 166.676 9.48932C166.676 8.62796 166.534 7.84926 166.25 7.15194C165.966 6.45463 165.566 5.84379 165.049 5.31815C164.533 4.79294 163.934 4.38853 163.254 4.10409C162.574 3.82008 161.829 3.67808 161.02 3.67808C160.211 3.67808 159.462 3.82008 158.773 4.10409C158.084 4.38811 157.486 4.79294 156.978 5.31815C156.47 5.84336 156.075 6.45463 155.79 7.15194C155.506 7.84926 155.364 8.62838 155.364 9.48932C155.364 10.3503 155.506 11.1294 155.79 11.8267C156.074 12.524 156.47 13.1353 156.978 13.6605C157.486 14.1857 158.084 14.5901 158.773 14.8746C159.462 15.1586 160.211 15.3006 161.02 15.3006Z" fill="black"/>
<path d="M187.88 18.8389C186.485 18.8389 185.189 18.6104 183.993 18.1543C182.796 17.6981 181.759 17.0483 180.881 16.2043C180.003 15.3608 179.318 14.3705 178.827 13.234C178.337 12.0976 178.092 10.8496 178.092 9.48931C178.092 8.12901 178.337 6.88063 178.827 5.74458C179.318 4.6081 180.007 3.61829 180.894 2.77431C181.78 1.93074 182.822 1.28091 184.019 0.824365C185.215 0.368249 186.511 0.139771 187.905 0.139771C189.472 0.139771 190.893 0.411064 192.167 0.953233C193.441 1.4954 194.508 2.29233 195.369 3.34233L192.658 5.82172C192.055 5.11593 191.37 4.58224 190.604 4.22065C189.838 3.85906 189.007 3.67849 188.112 3.67849C187.268 3.67849 186.494 3.82049 185.788 4.1045C185.082 4.38851 184.471 4.7891 183.954 5.30541C183.438 5.82172 183.037 6.43341 182.753 7.13921C182.469 7.84542 182.327 8.62879 182.327 9.48931C182.327 10.3498 182.469 11.1336 182.753 11.8394C183.037 12.5456 183.437 13.1565 183.954 13.6732C184.471 14.1895 185.082 14.5901 185.788 14.8741C186.494 15.1581 187.269 15.3001 188.112 15.3001C189.007 15.3001 189.838 15.1153 190.604 14.7448C191.37 14.3748 192.054 13.8368 192.658 13.1306L195.369 15.61C194.508 16.6604 193.441 17.4612 192.167 18.0118C190.893 18.5625 189.464 18.8384 187.879 18.8384L187.88 18.8389Z" fill="black"/>
<path d="M203.092 18.529V0.450073H207.25V18.529H203.092ZM206.811 14.3968L206.605 9.56732L215.257 0.450498H219.906L212.132 8.84415L209.756 11.3235L206.811 14.3968ZM215.463 18.529L209.032 10.6775L211.77 7.68182L220.37 18.529H215.463Z" fill="black"/>
<path d="M51.6553 0.716309H46.7105C46.4316 0.716309 46.276 1.0389 46.4494 1.25721L52.6252 9.02391C52.9804 9.4707 52.9804 10.104 52.6252 10.5508L46.624 18.0975C46.3798 18.4048 46.5986 18.8584 46.9911 18.8584H51.3276L57.8095 9.62034L51.6548 0.716309H51.6553Z" fill="black"/>
<path d="M66.5257 0.716309H61.5809L58.8268 4.70055L61.2549 8.21341L66.7864 1.25721C66.9602 1.0389 66.8046 0.716309 66.5253 0.716309H66.5257Z" fill="black"/>
<path d="M61.9081 18.8583H66.2446C66.6372 18.8583 66.8559 18.4048 66.6117 18.0974L61.1294 11.2031L58.8332 14.4756L61.9081 18.8579V18.8583Z" fill="black"/>
<path d="M71.1445 0.697144H76.0893C76.3682 0.697144 76.5238 1.01973 76.3504 1.23804L70.1746 9.00474C69.8194 9.45153 69.8194 10.0848 70.1746 10.5316L76.1758 18.0783C76.4199 18.3857 76.2012 18.8392 75.8087 18.8392H71.4722L64.9903 9.60117L71.1449 0.697144H71.1445Z" fill="black"/>
</svg>
